<svg id="Layer_1" data-name="Layer 1" xmlns="http://www.w3.org/2000/svg" viewBox="0 0 512 512"><path d="M256,322.3c-12.41,0-19.25,6.4-19.25,18,0,10.55,7.54,81.69,19.25,81.69s19.25-71.14,19.25-81.69C275.25,328.7,268.41,322.3,256,322.3Zm11.92,62.86C262.19,417.49,257.35,420,256,420s-6.18-2.51-11.92-34.84c-3.3-18.61-5.33-38.67-5.33-44.85,0-13.23,9.38-16,17.25-16s17.25,2.78,17.25,16C273.25,346.49,271.22,366.55,267.92,385.16Z"/><path d="M256,204.06a21.4,21.4,0,1,0-21.4-21.4A21.42,21.42,0,0,0,256,204.06Zm0-40.8a19.4,19.4,0,1,1-19.4,19.4A19.42,19.42,0,0,1,256,163.26Z"/><path d="M319.1,233.25a25.37,25.37,0,0,0-18.53-10.08,162.6,162.6,0,0,0-.32-51.48A147.58,147.58,0,0,0,271,105.43a124.66,124.66,0,0,0-10.09-11.36c-3.14-3.09-4.16-3.87-4.66-4v0l-.15,0h0a.93.93,0,0,0-.24,0v0c-.5.17-1.54,1-4.7,4.07a122.5,122.5,0,0,0-10.17,11.48,147.54,147.54,0,0,0-29.2,66.28,162.66,162.66,0,0,0-.29,51.3,25.37,25.37,0,0,0-18.53,10.08c-16.33,20.64-8,64.23,1.84,97.15a1.52,1.52,0,0,0,1.47,1.1h.11a1.54,1.54,0,0,0,1.41-1.28,237.45,237.45,0,0,1,8.19-34.61c5.4-16.22,11.68-25.19,18.2-26.08q2.88,7.31,6.32,14.68c-1.58,1.17-2.38,2.46-2.38,3.85a3.1,3.1,0,0,0,.08.69H228v13.61c0,1.68,1.69,3.07,4.49,4.19v6.9c0,4.86,15.35,6.15,23.47,6.15s23.47-1.29,23.47-6.15v-6.9c2.8-1.12,4.49-2.51,4.49-4.19V288.75h-.07a3.84,3.84,0,0,0,.07-.69c0-1.4-.8-2.7-2.4-3.86q3.45-7.38,6.32-14.67c6.52.89,12.8,9.86,18.2,26.08a236.41,236.41,0,0,1,8.19,34.61,1.54,1.54,0,0,0,1.41,1.28h.11a1.54,1.54,0,0,0,1.48-1.1C327.12,297.48,335.43,253.89,319.1,233.25ZM256,91l-.06.16h0L256,91Zm-34.11,51.81c12-30.35,30.72-47.57,34.11-50.51,3.4,2.94,22.1,20.16,34.1,50.51a149.94,149.94,0,0,1,10.26,60.71c-.89,26.39-8.27,54.17-21.9,82.56a70.56,70.56,0,0,1-44.92,0c-13.63-28.39-21-56.17-21.9-82.56A150.1,150.1,0,0,1,221.89,142.81ZM196.08,327.9c-9.45-32.18-17.09-73.77-1.65-93.37a23.75,23.75,0,0,1,17.31-9.37,210.61,210.61,0,0,0,11.63,42.44C207.3,270.59,198.77,312,196.08,327.9Zm81.39-14.45c0,1.41-7.58,4.15-21.47,4.15s-21.47-2.74-21.47-4.15v-6.21c5.39,1.64,13.46,2.48,21.47,2.48s16.08-.84,21.47-2.48ZM256,307.72c-15.85,0-26-3.18-26-5.36V291.59c4.39,3.63,15.44,5.55,26,5.55s21.54-1.92,25.95-5.53v10.75C282,304.54,271.85,307.72,256,307.72Zm26-19.66c0,3.35-10.65,7.08-25.95,7.08s-25.95-3.73-25.95-7.08a2.87,2.87,0,0,1,1.26-2c.2.41.39.83.59,1.24h0a1,1,0,0,0,.2.28l.06,0a1.28,1.28,0,0,0,.25.15l0,0a72.58,72.58,0,0,0,47.06,0l.05,0,.24-.15.07-.06a.93.93,0,0,0,.19-.27h0l.6-1.26A2.87,2.87,0,0,1,282,288.06Zm34,39.85c-2.69-15.89-11.22-57.32-27.29-60.31a210.43,210.43,0,0,0,11.63-42.44,23.75,23.75,0,0,1,17.31,9.37C333,254.13,325.37,295.72,315.92,327.91Z"/></svg>