<svg id="Layer_1" data-name="Layer 1" xmlns="http://www.w3.org/2000/svg" viewBox="0 0 512 512"><path d="M512,307a1,1,0,0,0-.45-1.07l-71.58-41.58V244.51a.92.92,0,0,0-.17-.51,1.1,1.1,0,0,0-.09-.14s0,0,0-.05a1.13,1.13,0,0,0-.34-.31l-23.51-13.57v-20.8a.91.91,0,0,0-.16-.51.65.65,0,0,0-.1-.15l0,0a1.13,1.13,0,0,0-.34-.31l-23.51-13.57v-20.8a1,1,0,0,0-.16-.51.61.61,0,0,0-.1-.14l0,0a1.26,1.26,0,0,0-.34-.31l-23.51-13.57v-20.8a1,1,0,0,0-.16-.51l-.1-.14,0-.05a1.43,1.43,0,0,0-.34-.31l-23.71-13.69V103.11a1.51,1.51,0,0,0-.25-.64l0-.06a1.13,1.13,0,0,0-.34-.31L318.74,88.37a1.2,1.2,0,0,0-1-.09l-77.2,28.1a.83.83,0,0,0-.16.09,1,1,0,0,0-.78,1V223.91l-11,4V144.59l-43.2-26.1a1,1,0,0,0-.94,0,2.07,2.07,0,0,0-1.39,0L39.3,171.84v125L.33,311a.5.5,0,0,0-.08.9L193.17,423.65h0a1,1,0,0,0,.49.14,1,1,0,0,0,.34-.06l317.34-115.5A1,1,0,0,0,512,307ZM241.58,119.27l22.15,12.79v20.58a1,1,0,0,0,.66.93,1,1,0,0,0,.29.24l23.4,13.51V187.9a1,1,0,0,0,.19.55,1.18,1.18,0,0,0,.55.74l23.4,13.51v20.58a1,1,0,0,0,.19.55,1.18,1.18,0,0,0,.55.74l23.4,13.51v20.58a1,1,0,0,0,.19.56,1.2,1.2,0,0,0,.56.73l23.4,13.51v18.88L241.58,223.65Zm99.58,4.61-75.44,27.45V132.15l75.44-27.45Zm24.34,35.3-75.43,27.46V167.41L365.5,140Zm24.14,35.38L314.21,222V202.79l75.43-27.45Zm24.14,35.38L338.35,257.4V238.17l75.43-27.45ZM362.5,273.55l75.43-27.45v19L362.5,292.62Zm-.94-1.77-22-12.7,75.27-27.4,22,12.7ZM337.42,236.4l-22-12.71,75.27-27.39,22,12.7ZM313.28,201l-22-12.7,75.27-27.39,22,12.7Zm-24.14-35.38-22-12.7,75.27-27.39,22,12.7Zm28.92-75.35,22,12.7-75.27,27.4-22-12.7Zm-15.7,205.83L190.92,336.68a.25.25,0,0,1-.19,0l-47.18-27.43,111.54-40.6ZM41.62,273.82a.09.09,0,0,1,0-.09.1.1,0,0,1,.07-.09l-.35-1V174.32L82,199.38V297.3Zm159-131.54-8.84,3.21.16-.27-29-16.89,8.45-3.08Zm-12.5,56.45,17,9.85-34,12.38-17.7-10.22,34.27-12.47A1,1,0,0,0,188.15,198.73ZM107,227.65,124.9,238l-34,12.39-6.88-4V235.85h.09a2.22,2.22,0,0,0,.72-.12Zm-23,21L89.78,252v34L84,282.66Zm7.77,37.48v-34l34.38-12.51v34Zm36.37-47.79a1.06,1.06,0,0,0,0-.5v0a1,1,0,0,0-.46-.6l-18.16-10.49,1.64-.6a1,1,0,0,0,.19.17l18.79,10.84v33.74l-2-1.13ZM147.25,213a1.16,1.16,0,0,0,.2.18l17.42,10.06-33.69,12.26L113.49,225.3ZM132.07,237.3l34.38-12.51v33.87l-34.38,12.51Zm36.37-13.78a1,1,0,0,0,0-.5,1,1,0,0,0-1-.64h-.09l-17.73-10.24,1.41-.52,19,11v33.94l-1.63-.94Zm3.63-.76,34.38-12.52v34.09l-34.39,12.52ZM84.13,233.87a.1.1,0,0,1-.09,0l0,.07V198.27l-4.76-2.94,17.9-6.51a1.31,1.31,0,0,0,.3.27l30.31,17.64a1.11,1.11,0,0,0,.48.25.93.93,0,0,0,1.1-.23l85.75-31.21,11.1,6.45s0,0,0,.1a.1.1,0,0,1-.07.08Zm28-86.63L140.8,164v.21a1,1,0,0,0,0,.34V166l-28.72-16.71Zm49.29-17.52,28.71,16.71v.21a1,1,0,0,0,0,.35v5.44l-28.72-16.71s0-.05,0-.07Zm42.75,27.56h.05a1,1,0,0,0,.34-.06l9.67-3.51v20l-10.06,3.66Zm-12,24.52V147.51l10.06-3.66v34.29Zm-39.43-12.93,10.33,6-10.33,3.76Zm0,11.9,12.25-4.46v15.38l-12.25,4.46Zm14.24-20.12L177,157V187.3L166.89,191Zm12.05-1.09,11.15-4.06v27l-11.15,4.06Zm-19.53-22.68,29.25,17-9.72,3.54v-.73a.9.9,0,0,0,.24-.27,1,1,0,0,0-.36-1.36l-.14-.09a1,1,0,0,0-.66-.38l-25.91-15.07Zm16,18.54-9.1,3.31-29.83-17.36,9.07-3.26.53.24Zm-40.37-12.59,29.83,17.36a.5.5,0,0,0,0,.12h0a1,1,0,0,0,0,.17V173.7l-12.25-7.13v-5a1,1,0,0,0-.12-.45,1,1,0,0,0-1.26-1.3l-16.19-9.28Zm15.58,37.07a1,1,0,0,0,0,.35v16.62l-7.87,2.87V165l7.87-2.86ZM99,187.59V156l28.73,16.71a1,1,0,0,0,0,.71h0a1,1,0,0,0,0,.17v30.74L99,187.67S99,187.62,99,187.59Zm30.67-13.79,11.15-4.06v30.72l-11.15,4.06ZM110.8,150.88l29.25,17-10.67,3.88.16-.27-29-16.89Zm93.33,4.37v-8.1l8.56,5Zm-44.74-20.48-9.51,3.47L147,136.58l-1.35-.62-11.93,4.3a1,1,0,0,0-.6,1.27.43.43,0,0,1,0,.07,1.45,1.45,0,0,0-.1.51v7.3l-10.86-6.23,37.16-13.79Zm-10.56,25.95-6.31,2.3.16-.27-28.49-16.58,5.61-2.09ZM110.09,149l-12.48,4.55a1,1,0,0,0-.59,1.27v0a.75.75,0,0,0,0,.16v31.75L77.08,194,42.55,172.76l67.55-25.08ZM84,285l6.35,3.68a1,1,0,0,0,.5.14,1,1,0,0,0,.83-.46l35.75-13,0,0a1,1,0,0,0,.66-.93v-2.26l2.45,1.41,0,0a.52.52,0,0,0,.15.06.65.65,0,0,0,.2,0l.1,0,.09,0a.78.78,0,0,0,.22,0l.13-.05.12-.07,36.17-13.17a1,1,0,0,0,.63-1v-1.33l2.13,1.24a1,1,0,0,0,.5.13,1,1,0,0,0,.53-.16L207.8,246a1,1,0,0,0,.64-1V236.3l17.74,10.31s0,0,0,.1,0,.08-.07.08L84,298.48l0,0ZM208.44,234V209a1.08,1.08,0,0,0,0-.5h0a.92.92,0,0,0-.46-.6l-18-10.39,36.65-13.34v60.42Zm18.15-54.07-10.31-6a.77.77,0,0,0-.1-.18V152.82a.86.86,0,0,0-.08-.36,1,1,0,0,0,0-.5s0-.06,0-.09l0-.08-.14-.08a1,1,0,0,0-.66-.38l-11.13-6.48V143a1,1,0,0,0-.07-.36,1.08,1.08,0,0,0,0-.5s0,0-.05-.09l.05-.08-.15-.08a1,1,0,0,0-.65-.38l-17.36-10.1V121.11l40.73,24.6Zm-42.85-59.58.13.09v9.77l-10.4-6.05ZM41.29,275.93l21.34,12.41L41.29,296.1Zm-2,23v9.52a3,3,0,1,0,2,0V298.21l23.58-8.57L82,299.6v35.15a3,3,0,1,0,2,0V300.47l.09,0a2.23,2.23,0,0,0,.72-.13l141.78-51.6v28.13l-84.83,30.88a1.42,1.42,0,0,0-.94,1.22,1.38,1.38,0,0,0,.24.91h-.38v55.87a3,3,0,1,0,2,0V311l46.54,27.05v55a3,3,0,1,0,2,0V338.65a2,2,0,0,0,.41-.1l63.31-23.05v7.81a3,3,0,1,0,2,0v-8.53l46.53-16.94v53.77a3,3,0,1,0,2,0V295.75H305a1.36,1.36,0,0,0-.62-.76l-48.51-28.21a1.49,1.49,0,0,0-1.22-.11l-26.07,9.49V230l12.31-4.48L361,294.92a1,1,0,0,0,.5.14,1,1,0,0,0,.46-.12l77.31-28.27h0a.82.82,0,0,0,.2-.12.47.47,0,0,0,.12-.07l69.6,40.42L193.77,421.7,4,311.77Z"/><polygon points="254.65 266.68 254.65 266.68 254.65 266.68 254.65 266.68"/><path d="M109.44,252.59a5.41,5.41,0,1,0,4.83,5.38A5.13,5.13,0,0,0,109.44,252.59Zm0,8.76a3.44,3.44,0,1,1,2.84-3.38A3.16,3.16,0,0,1,109.44,261.35Z"/><path d="M150,237.26a5.41,5.41,0,1,0,4.82,5.37A5.12,5.12,0,0,0,150,237.26Zm0,8.76a3.44,3.44,0,1,1,2.84-3.39A3.15,3.15,0,0,1,150,246Z"/><path d="M189.4,224.11a5.41,5.41,0,1,0,4.83,5.38A5.13,5.13,0,0,0,189.4,224.11Zm0,8.77a3.44,3.44,0,1,1,2.84-3.39A3.15,3.15,0,0,1,189.4,232.88Z"/></svg>