<svg id="Layer_1" data-name="Layer 1" xmlns="http://www.w3.org/2000/svg" viewBox="0 0 512 512"><path d="M511.52,241.94c-.87-3.91-11.57-24.76-23-33.1a28.52,28.52,0,0,0-15.85-5.9,18.14,18.14,0,0,0-11.25,3.25,44.22,44.22,0,0,0-7.38,6.2l-.11.11c0-.12-.06-.23-.08-.35a77.23,77.23,0,0,0-4.2-13.91,44.44,44.44,0,0,0-7.18-12.12,31.63,31.63,0,0,0-16.42-10.63c-6.75-1.75-12.66-1.71-20.4.16a34.3,34.3,0,0,0-6.47,2.7c-4.27,2.22-4.23,2.51-4.13,3.17l.16.91.91-.06c3.64-.21,10.67,2,13.81,3.18a17.23,17.23,0,0,0-2.52,3.64l-.71,1.27,1.13.38a28.16,28.16,0,0,0,3.4.85,14.25,14.25,0,0,1,5.31,1.82,15.86,15.86,0,0,0-1.41,1.63,11.85,11.85,0,0,0-1.3,2.38,1.85,1.85,0,0,0,1.62,2.64c.22,0,.44,0,.67,0a4.32,4.32,0,0,1,1,.08l2.19.55c2.28.58,4.64,1.17,6.87,1.93a57.44,57.44,0,0,1,12.88,5.89,39.1,39.1,0,0,1,5.1,4c-1.28-.55-2.54-1.11-3.81-1.68-3.13-1.39-6.37-2.83-9.67-4a86.25,86.25,0,0,0-21.13-4.56,46.22,46.22,0,0,0-27.29,6.43,72.66,72.66,0,0,0-18,15.17c-.47.53-2.06,2.88-1.76,4.33a1.87,1.87,0,0,0,.89,1.26c1,.57,2.36.13,3.45-.22l.12,0c2.84-.92,5.76-1.95,8.69-3.05,2.58-1,5.17-2,7.68-3l3.42-1.36h.05A10.2,10.2,0,0,1,387,223c0,.53,0,1.07.05,1.61,0,.69,0,1.41.09,2.13a2.88,2.88,0,0,0,1.37,2.3,3,3,0,0,0,2.73,0c1.38-.64,2.71-1.39,4-2.11l1.57-.88.45-.25,0,.67c0,.34,0,.67,0,1a12.57,12.57,0,0,0,.76,4.57,2,2,0,0,0,1.24,1.12,2,2,0,0,0,1.63-.2c3.22-2,6.45-3.95,9.69-5.91l1.74-1.06.06.62.11,1c.13,1.14.26,2.32.44,3.48l.05.35c.19,1.37.46,3.43,1.93,3.81s2.42-1,3.14-2.08l.41-.58.27-.32c.71-.86,1.42-1.72,2.15-2.57,2.45-2.83,5.79-4.63,10.5-5.65,4.18-.91,11.93-.94,15.71-.88-14.48,14.4-29.47,37-37.75,57-1.67,4-4.09,11-6.56,18.42l-22.16-12.79,1.35-4.08s0-.06,0-.1a.64.64,0,0,0,0-.2,1.1,1.1,0,0,0,0-.18.61.61,0,0,0,0-.18.89.89,0,0,0-.08-.17.83.83,0,0,0-.11-.15l-.15-.13-.08-.07-22.64-13.07-.09,0-.09-.05h-.1a.64.64,0,0,0-.2,0l-.18,0a.61.61,0,0,0-.18,0l-.17.08-.15.11-.13.15-.07.08a.32.32,0,0,1,0,.09s0,.06,0,.09l-1.22,3.69-99.66-57.54a1.42,1.42,0,0,0-1.22-.11l-12.2,4.44V212l3.27-1.19a2.25,2.25,0,1,0-.68-1.87l-2.59.94V196.37l3.31-1.2a2.23,2.23,0,0,0,2.31.49,2.25,2.25,0,0,0-1.54-4.22,2.22,2.22,0,0,0-1.45,1.86l-2.63.95V179.92l3.34-1.21a2.24,2.24,0,0,0,3.65-2.39,2.24,2.24,0,0,0-4.33.52l-2.66,1V167.67c6.37-5.1,9.72-10.69,9.72-16.49,0-12.92-16.61-24.73-45.6-32.44a52.93,52.93,0,0,0-1.22-13.39l0-.12c-3-13.62-8.69-17.92-13-19.13-8-2.24-15.49,4.63-15.81,4.92-3.92,3.64-4.81,7.4-5.68,11-.81,3.39-1.57,6.59-4.74,9.7l-.06.06c-9.68-.9-19.69-1.36-29.79-1.36-1.31,0-2.61,0-3.91,0a128.73,128.73,0,0,0-3.67-12.37c-.3-.92-.59-1.77-.84-2.55-2-6-4.15-12.76-10.28-16.82a19.77,19.77,0,0,0-21.31,0c-6.34,4.07-8.68,10.84-10.74,16.82-.25.73-.54,1.54-.85,2.41-1.66,4.65-4,11.14-5,17.62-36.6,7.13-59.33,20.76-59.33,35.58,0,11.06,12.19,21.37,34.33,29,21.8,7.53,50.77,11.68,81.56,11.68,29,0,56.35-3.68,77.65-10.39v6.7L211,189.52a2.24,2.24,0,1,0,.68,1.87l3-1.09v14.33L210.93,206a2.25,2.25,0,1,0,.68,1.87l3-1.11V220.3l-3.75,1.37a2.24,2.24,0,1,0,.68,1.87l3.07-1.12v6.5l-115,41.85a20.59,20.59,0,0,0-7.49-15.85A20.8,20.8,0,0,0,77,250.45c-2.34.25-5.34,1.61-11.34,4.33a13.71,13.71,0,0,0-5.45,3.66,13.18,13.18,0,0,0-2.77,6.4c-.11.58-1,5.7,1,9.17l.07.12a10.3,10.3,0,0,1,.73,1.47,12.22,12.22,0,0,1,.78,3.16c.28,2,.35,3.1.39,3.86a4.77,4.77,0,0,0,.5,2.27L1,306.7A1.44,1.44,0,0,0,0,307.93a1.42,1.42,0,0,0,.71,1.38L220.44,436.17a1.52,1.52,0,0,0,.72.19,1.43,1.43,0,0,0,.5-.09l254.42-92.6a1.45,1.45,0,0,0,.22-2.61l-43.33-25,1.23-3.69s0-.07,0-.1a1.36,1.36,0,0,0,0-.2,1.09,1.09,0,0,0,0-.18,1.05,1.05,0,0,0-.05-.19.8.8,0,0,0-.08-.16.61.61,0,0,0-.12-.15.64.64,0,0,0-.15-.13l-.07-.07-10.34-6c6.09-30.42,20.5-57.39,27.46-70.4,1.85-3.45,3.21-6,3.88-7.57l.2.27c.46.69.93,1.37,1.4,2.05,1.23,1.79,2.51,3.64,3.58,5.53,2.47,4.37,3.22,8.5,2.29,12.62a4.63,4.63,0,0,0-.1.65l-.13,1,.72.29a3.5,3.5,0,0,0,4.37-.82c.29-.31.57-.62.85-.95a36.92,36.92,0,0,1,2.78,8.76l.17,1,1-.17a5.72,5.72,0,0,0,3.26-1.59c.88,2,1.79,4.6,2.33,6.12.67,1.88.68,1.92,1.21,2.06l.77.21,2.85-5.32c1.89,3.9,4,9.42,5.28,12.9l.23.61a1.71,1.71,0,0,0,1.83,1.1,1.66,1.66,0,0,0,1.46-1.48l0-.16a59.76,59.76,0,0,0-.58-17.38c-.53-3.39-1.3-7.07-2.42-11.59-1.87-7.6-6.65-13.8-14.2-18.43a49.47,49.47,0,0,0-11.55-5,24.21,24.21,0,0,1,9.51,2.21,60.4,60.4,0,0,1,21.34,16,20.81,20.81,0,0,0,1.55,1.52,18,18,0,0,1,2,2l1.69,2.27.11-2.83a20,20,0,0,0-.29-6c1.47,1,2.71,2,3.91,3a53,53,0,0,0,7.89,5.4l1.93,1.07ZM359,269.85l20.88,12-8.45,25.52-20.88-12.06Zm12.59,40.75,3.55,4.54-6.19-3.58Zm-54.42,17.69-20.92-12.08,53-19.3L370.16,309ZM168.24,113.19c3.59-3.51,4.45-7.15,5.29-10.66s1.62-6.82,5.09-10c.29-.26,7-6.41,13.92-4.46,3.76,1.06,8.81,5,11.56,17.63l0,.14c1,4.16,5,25.31-9.58,33.6-8.53,4.86-30.77,5.74-38.69.05-1.91-1.37-3.45-5-4-9.14,4.71-1,8-2.62,8-4.91,0-2-2.58-3.51-6.43-4.52,1.25-1.61,3-2.13,5.39-2.78A19.64,19.64,0,0,0,168.24,113.19ZM137,112.46c9.32,0,18.56.41,27.53,1.18a20.82,20.82,0,0,1-6.18,2.53c-2.71.76-5.28,1.48-6.94,4.21a72.35,72.35,0,0,0-13.54-1.17c-1.15,0-2.32,0-3.48.07a47.09,47.09,0,0,0-.87-6.79C134.68,112.48,135.84,112.46,137,112.46Zm.87,8.74c13,0,20.06,2.77,20.06,4.19s-7.08,4.2-20.06,4.2c-12.09,0-19.06-2.41-20-3.89l0-.08a.71.71,0,0,1-.06-.23C117.81,124,124.89,121.2,137.87,121.2ZM137,145h1.72a2.27,2.27,0,0,0,2.27-2.27v-.09c4.6.23,7.18.91,8.1,1.36-1.2.6-5,1.45-11.23,1.45s-10-.85-11.23-1.45c.92-.45,3.5-1.13,8.1-1.36v.09A2.27,2.27,0,0,0,137,145Zm-.28-2.27V131.57H139v11.17a.27.27,0,0,1-.28.27H137A.27.27,0,0,1,136.73,142.74ZM87.28,98.64l.86-2.42c2-5.67,4.17-12.1,9.93-15.79a17.75,17.75,0,0,1,19.13,0c5.56,3.68,7.55,9.83,9.48,15.78l.86,2.56c1.81,5.39,4.52,13.44,4.87,20.62-8.69.56-16.51,2.47-16.59,6a66,66,0,0,1-9.18.58c-16.94,0-19-4.62-19-4.78a1,1,0,0,0-1.21-.68,1,1,0,0,0-.71,1.22c.17.63,2.17,6.23,20.93,6.23a65.58,65.58,0,0,0,10-.68c1.92,2,7,3.34,12.95,3.94a11.55,11.55,0,0,1-2.1,2.15c-6.73,5.24-35.16,4.75-40.56.51C77.4,126.36,83.83,108.33,87.28,98.64ZM137,189.89c-30.58,0-59.32-4.11-80.91-11.57-21.27-7.35-33-17-33-27.14,0-13.73,21.84-26.53,57.06-33.5-.74,6.93.28,13.6,5.52,17.71,3.07,2.42,12,3.76,21,3.76s18.22-1.33,22-4.26a13.61,13.61,0,0,0,3.16-3.52c1,.06,1.92.11,2.89.15v9.13c-9,.43-10.38,2.27-10.38,3.36,0,3.19,10.34,3.44,13.51,3.44s13.51-.25,13.51-3.44c0-1.09-1.4-2.93-10.38-3.36v-9.13a70.45,70.45,0,0,0,9-.85c.48,3.76,1.94,8.38,4.74,10.39,4.14,3,11.64,4.3,19.34,4.3,8.26,0,16.74-1.54,21.49-4.25,8.15-4.64,10.95-12.87,11.63-20.35,27.41,7.36,43.74,18.7,43.74,30.42,0,4.83-2.66,9.54-7.73,13.95v-8.66c0-3.79-3.58-6.87-8-6.87s-8,3.08-8,6.87v3.41a2.25,2.25,0,1,0,2,0v-3.41c0-2.69,2.69-4.88,6-4.88s6,2.19,6,4.88v10.28c-5.54,4.23-13.37,8.15-23.26,11.57l-1.28.42V166.61c0-3.78-3.57-6.86-8-6.86s-8,3.08-8,6.86V170a2.25,2.25,0,1,0,2,0v-3.41c0-2.68,2.68-4.87,6-4.87s6,2.19,6,4.87v12.78C193.46,186.17,166.07,189.89,137,189.89Zm79.64,38.31v-6.51l24.54-8.93v6.51Zm24.54-6.81V229l-24.54,8.93v-7.61Zm-24.54-1.81V206l24.54-8.93v13.55Zm0-15.67V189.58l24.54-8.93V195Zm0-16.45v-6.63c.64-.21,1.3-.41,1.93-.63,9.38-3.24,17-7,22.61-11v9.35Zm-1,57.37a1,1,0,0,0,1-1v-3.78l24.54-8.93v2.57a1,1,0,1,0,2,0v-3.3l10.47-3.81,90,52-227,82.61-90-52,38.79-14.12a20.65,20.65,0,0,0-3.77,9.79,19.36,19.36,0,0,0,0,3.49h0c0,13.2,16.84,23.93,37.52,23.93s37.53-10.73,37.53-23.93c0-10.32-16.49-18.41-37.53-18.41a73.77,73.77,0,0,0-11.75.93,29.82,29.82,0,0,1,2.59-3c.7-.72,1.47-1.53,2.41-2.66l122.2-44.48v3.06A1,1,0,0,0,215.65,244.83ZM99.47,273,214.65,231v7.61L94.77,282.28c2.18-2.85,3.85-5.4,4.56-8.54C99.38,273.49,99.42,273.22,99.47,273Zm-39.27.17-.05-.1c-1.65-2.9-.78-7.62-.74-7.82a11.22,11.22,0,0,1,2.33-5.49,12,12,0,0,1,4.76-3.13c5.79-2.63,8.7-3.94,10.73-4.16a18.76,18.76,0,0,1,13.7,4c5.09,4.2,7.74,11.13,6.45,16.85-.77,3.43-2.86,6.1-5.75,9.8a38,38,0,0,1-3,3.42,30.92,30.92,0,0,0-3,3.4,33,33,0,0,0-5.25,10.49c-.39,1.31-1.25,4.58-1.28,4.72l0,.25c0,5.06,10.36,7.79,20.1,7.79s20.11-2.73,20.11-7.79a1,1,0,1,0-2,0,3,3,0,0,1-1.52,2.19,44.72,44.72,0,0,0-33.2,0,3.13,3.13,0,0,1-1.51-2.09c.17-.65.89-3.38,1.23-4.49a31.12,31.12,0,0,1,3.54-7.84,71.39,71.39,0,0,1,13.34-1.23c19.6,0,35.53,7.37,35.53,16.42,0,12.1-15.93,21.94-35.53,21.94-18.08,0-33-8.39-35.24-19.19a5.45,5.45,0,0,0,2,.37c3.05,0,12.27-2.48,12.66-2.58a1,1,0,0,0-.52-1.93c-2.59.7-9.82,2.52-12.14,2.52-1.89,0-2.26-1-2.32-1.27a16.68,16.68,0,0,1,0-3.16,18.92,18.92,0,0,1,4-9.69c1.07-1.42,1.81-2,4.57-4.15.58-.47,1.26-1,2-1.62,10-7.94,12.38-10.56,13.88-14,1.26-2.85,1.56-5.37.89-7.49a8.69,8.69,0,0,0-3.85-4.81,9.06,9.06,0,0,0-8.62,0,8.35,8.35,0,0,0-3.84,3.89c-.09.23-.18.48-.27.74a6.85,6.85,0,0,1-1.27,2.4,7,7,0,0,1-.75.76,18.76,18.76,0,0,1-2.75,2.07,4.41,4.41,0,0,0-1.71,1.58c-1,1.92,0,4.18.82,6,.14.3.31.58.47.87a9.93,9.93,0,0,1-5.16-1.39c0-.5-.12-1.07-.21-1.73a14.85,14.85,0,0,0-.92-3.63A12.26,12.26,0,0,0,60.2,273.13Zm24.67,35.68a43.36,43.36,0,0,1,28.68,0,38.29,38.29,0,0,1-14.35,2.37A38.18,38.18,0,0,1,84.87,308.81ZM69.75,281.66a10,10,0,0,1-1.07-1.76c-.68-1.48-1.46-3.16-.88-4.2.16-.3.39-.46,1-.86a20.11,20.11,0,0,0,3-2.28,8.22,8.22,0,0,0,2.57-4c.07-.23.15-.43.23-.63a6.5,6.5,0,0,1,3-2.91,7,7,0,0,1,6.68,0,6.86,6.86,0,0,1,2.94,3.69c.52,1.65.25,3.7-.81,6.09-.14.32-.29.63-.46.95Zm.78,3.67c.49.4.84.65,1.1.83a1.73,1.73,0,0,0,.25.16,7.83,7.83,0,0,1-2.74,1.57c-1.17.49-1.42.32-1.6.19a1.88,1.88,0,0,0-.43-.25A8.35,8.35,0,0,1,65,286.37a14,14,0,0,1-2.34-2.31,2.6,2.6,0,0,1-.32-1.5,12.53,12.53,0,0,0,5.05,1c.51,0,.94,0,1.27-.06A15.71,15.71,0,0,0,70.53,285.33ZM474.3,342.2,221.21,434.31,2.73,308.17l59.49-21.65c.41.38.89.81,1.5,1.34a10.88,10.88,0,0,0,2.68,1.85c.69.48,1.59.81,3.5,0,2.94-1.21,4.2-2.37,4-3.64a2.12,2.12,0,0,0-1.11-1.55c-.22-.16-.53-.38-1-.74-.19-.16-.41-.34-.62-.54l12.71-4.63c-1.8,2-4.88,4.73-10.8,9.4l-2,1.61c-1.29,1-2.17,1.7-2.88,2.32L24.89,307.72a1.44,1.44,0,0,0-.23,2.61L115.89,363a1.41,1.41,0,0,0,.72.19,1.36,1.36,0,0,0,.49-.08L345.41,280a1.44,1.44,0,0,0,.23-2.61l-91.22-52.67a1.42,1.42,0,0,0-1.22-.11l-10,3.65v-7.61l12.64-4.6,99.8,57.62-7.08,21.37-54.09,19.69a1.42,1.42,0,0,0-.94,1.23,1.45,1.45,0,0,0,.72,1.38l22.16,12.79a1.41,1.41,0,0,0,1.22.11l48.89-17.8,10.08,5.82a1.48,1.48,0,0,0,.72.2,1.45,1.45,0,0,0,1.09-.51,1.42,1.42,0,0,0,.05-1.83l-5.49-7L380,287.77l22.17,12.79c-4,12.08-7.91,24.77-8.84,27.78l-46.7,17a1.44,1.44,0,0,0-.94,1.23,1.42,1.42,0,0,0,.71,1.38l22.17,12.8a1.43,1.43,0,0,0,1.21.1l48.9-17.79,10.07,5.82a1.47,1.47,0,0,0,.73.19,1.45,1.45,0,0,0,1.09-.5,1.43,1.43,0,0,0,0-1.84l-5.49-7,7.2-21.74ZM369.35,358.89,348.42,346.8l45.43-16.53.23,0a1,1,0,0,0,.81-.41l6.54-2.38,20.93,12.09Zm54.41-17.69,3.56,4.53-6.19-3.57Zm8.29-28.7L423.6,338,402.72,326l8.45-25.52Zm71.36-76.45c-1.83-1.44-3.73-2.94-6.42-4.69l-2.5-1.64,1,2.81a13,13,0,0,1,1.13,5.69l-.54-.5a18.25,18.25,0,0,1-1.37-1.33,62.4,62.4,0,0,0-22-16.55,26.15,26.15,0,0,0-11.84-2.38,11.51,11.51,0,0,0-2,.29l-1,.18-2.21.38,1.76,1.39.26.2a1.38,1.38,0,0,0,.49.31l.49.17c.5.18,1,.36,1.51.5a49.09,49.09,0,0,1,12.69,5.3c7.19,4.41,11.54,10,13.31,17.2,1.1,4.47,1.86,8.1,2.39,11.43a59.74,59.74,0,0,1,.68,15.82,136.93,136.93,0,0,0-6.06-14.34l-.88-1.62-3.21,6a73.81,73.81,0,0,0-2.88-7.19l-.85-1.71-.91,1.68a3.52,3.52,0,0,1-2,1.8,46.07,46.07,0,0,0-3.36-9.61l-.63-1.42-1.64,1.88c-.42.49-.81.94-1.22,1.37a1.41,1.41,0,0,1-1.44.58c1-4.58.17-9.14-2.53-13.91-1.11-2-2.41-3.85-3.67-5.68-.46-.67-.93-1.35-1.38-2a10.1,10.1,0,0,0-.89-1.07l-.45-.5-1-1.11-.68,1.3c-.08.16-.16.31-.23.43a8.07,8.07,0,0,0-.39.78c-.58,1.45-2,4.05-3.89,7.65-7,13-21.31,39.84-27.53,70.28l-10.48-6.05a.38.38,0,0,0-.1,0,.26.26,0,0,0-.09-.05h-.09l-.2,0h-.18a.6.6,0,0,0-.19.06.65.65,0,0,0-.17.08l-.14.11-.14.15-.06.07a.38.38,0,0,0,0,.1.41.41,0,0,0-.05.09l-8.94,27-5,1.83c2.47-8,11.36-36.46,15.51-46.51,8.51-20.59,24.17-43.9,39-58l1.37-1.31-1.85-.38c-.56-.12-12.81-.45-18.7.83-5.08,1.1-8.87,3.16-11.59,6.29-.74.86-1.46,1.73-2.18,2.61l-.26.32c-.16.19-.33.44-.52.7a6.71,6.71,0,0,1-1,1.22,7.28,7.28,0,0,1-.48-2.07l-.05-.4c-.18-1.12-.31-2.27-.43-3.39l-.11-1c-.05-.44-.09-.89-.13-1.36l-.19-2.15-1.52.71a3.43,3.43,0,0,0-.39.2l-2.58,1.57q-4.86,2.94-9.7,5.91a10.89,10.89,0,0,1-.6-3.86c0-.35,0-.7,0-1l-.22-3.91-2.09,1.21c-.4.24-.76.44-1.12.64-.54.29-1.07.59-1.6.89-1.25.71-2.54,1.44-3.85,2a1,1,0,0,1-.9,0,.9.9,0,0,1-.39-.76c-.06-.65-.07-1.3-.08-2s0-1.14-.06-1.71a13.8,13.8,0,0,0-.22-1.68l-.12-.75-.18-1.22-1.62.6-.75.28-3.43,1.36c-2.5,1-5.08,2-7.64,3-2.9,1.1-5.79,2.12-8.6,3l-.12,0a6.5,6.5,0,0,1-1.78.41,6.82,6.82,0,0,1,1.3-2.56,70.85,70.85,0,0,1,17.5-14.77,44.32,44.32,0,0,1,26.13-6.17A84.79,84.79,0,0,1,430,208.82c3.22,1.11,6.42,2.53,9.51,3.91,1.39.62,2.77,1.23,4.16,1.82q1.16.49,2.31,1l1.82.8,1.11-1.44-.48-.61-.26-.34c-.21-.29-.43-.58-.67-.85a39.69,39.69,0,0,0-7.38-6.16,59.07,59.07,0,0,0-13.32-6.11c-2.32-.79-4.71-1.39-7-2l-2.17-.55a5.89,5.89,0,0,0-1.47-.14h-.43a10.92,10.92,0,0,1,1-1.87,17.73,17.73,0,0,1,1.32-1.5l.69-.73.66-.74-.73-.67c-2.1-1.92-4.61-2.43-7-2.93-.69-.14-1.35-.28-2-.44a8.89,8.89,0,0,1,2.27-2.83h0a1.51,1.51,0,0,1,.36-.18l.85-.26-.16-.87c-.08-.48-.17-1-6.77-2.94a51.3,51.3,0,0,0-7-1.64,34.73,34.73,0,0,1,6.91-3c7.4-1.79,13-1.84,19.43-.18a29.8,29.8,0,0,1,15.41,10,43.16,43.16,0,0,1,6.86,11.6,75,75,0,0,1,4.08,13.56c.09.42.22.84.35,1.31.07.22.14.44.21.69l.43,1.54L454.1,215l.52-.45c.34-.3.62-.56.89-.83a41,41,0,0,1,7-5.91,16.14,16.14,0,0,1,10.06-2.92,26.51,26.51,0,0,1,14.76,5.52c9.28,6.78,18.38,22.73,21.29,29.43A61.15,61.15,0,0,1,503.41,236.05Z"/><path d="M162.38,125.91a80.63,80.63,0,0,0,17.12,2.16c8.17,0,14.08-2,17.63-6,6.29-7.09,2.71-17.61,2.55-18.06a1,1,0,1,0-1.88.66c0,.1,3.35,9.88-2.17,16.09-5.17,5.81-16.21,6.9-32.82,3.21a1,1,0,0,0-1.19.76A1,1,0,0,0,162.38,125.91Z"/><path d="M64.38,272.82a4.4,4.4,0,1,0-4.4-4.39A4.4,4.4,0,0,0,64.38,272.82Zm0-6.8A2.41,2.41,0,1,1,62,268.43,2.41,2.41,0,0,1,64.38,266Z"/></svg>