<svg id="Layer_1" data-name="Layer 1" xmlns="http://www.w3.org/2000/svg" viewBox="0 0 512 512"><path d="M454.15,257.92V247.13c3.24-2,5.11-4.49,5.11-7.16,0-3.4-3.37-18.36-8.86-32.59-4.93-12.76-12.78-28-22.18-28-15.38,0-27.54,40.74-30.4,55.8-26.12-7.86-52.77-12.43-91.3-15.67l26.77-61.37a14.22,14.22,0,0,1,8.11-7.63l32.43-11.8a16.22,16.22,0,0,0,10.64-15.18v-5.75a16.15,16.15,0,0,0-21.69-15.18l-8.59,3.13v-3.09A16.15,16.15,0,0,0,332.5,87.49L292.76,102a16.24,16.24,0,0,0-9.28,8.72l-46.7,107.06a569.61,569.61,0,0,0-59.9,5V129.65a7.69,7.69,0,0,0-10.32-7.23l-15.92,5.79a3,3,0,0,0-4.34,1.58L80.82,153.63a3,3,0,0,0-5.3,1.93L55.9,162.7a7.71,7.71,0,0,0-5.06,7.23v92C21.73,279.23,6,299.92,6,321.47c0,27.95,26.12,54.16,73.55,73.79C126.7,414.77,189.36,425.51,256,425.51s129.3-10.74,176.45-30.25C479.88,375.63,506,349.42,506,321.47,506,298.18,488.07,276.22,454.15,257.92Zm-49.91-9.69c5.65,2.83,14.22,4.61,24,4.61s18.25-1.76,23.9-4.57V287c0,5.26-11,9.71-23.94,9.71s-23.94-4.45-23.94-9.71Zm24-66.79c15.68,0,29,52.16,29,58.53,0,5.24-11.65,10.84-29,10.84s-29-5.6-29-10.84C399.22,233.6,412.54,181.44,428.22,181.44Zm-64.74-76.9a14.12,14.12,0,0,1,18.95,13.27v5.75a14.16,14.16,0,0,1-9.29,13.27l-32.43,11.8a16.24,16.24,0,0,0-9.28,8.72L272.82,291.7a14.14,14.14,0,0,1-8.11,7.62L225,313.79A14.13,14.13,0,0,1,206,300.51v-5.74a14.18,14.18,0,0,1,9.29-13.28l32.43-11.8A16.21,16.21,0,0,0,257,261l58.6-134.34a14.21,14.21,0,0,1,8.12-7.63ZM204.18,303l-6.58-3.29,6.38-2.32v3.08A16.29,16.29,0,0,0,204.18,303ZM249,266.88,303,143a14.09,14.09,0,0,1,6.18-6.73l-54,123.86A14.16,14.16,0,0,1,249,266.88Zm36.36-155.4a14.22,14.22,0,0,1,8.12-7.62L333.2,89.4a14.12,14.12,0,0,1,18.95,13.27v3.83l-29.1,10.59a16.26,16.26,0,0,0-9.29,8.72l-3.35,7.69a16.24,16.24,0,0,0-9.27,8.71l-54.9,125.86-31.63,11.51A16.23,16.23,0,0,0,204,294.77v.49l-9.29,3.39a14.13,14.13,0,0,1-18.95-13.28v-5.74A14.18,14.18,0,0,1,185,266.35l32.43-11.8a16.24,16.24,0,0,0,9.28-8.72ZM146.31,132a3.05,3.05,0,0,0,1.83,1.79v57.19L146,189.67a2,2,0,0,0-1.66-.14L79.58,213.08V158.54a3,3,0,0,0,2-2.87.78.78,0,0,0,0-.16Zm1.83,63.39a3.06,3.06,0,1,0,2,0v-.89l13,7.48L82.78,231.2,64.59,220.7l13-4.72v4.16a3.06,3.06,0,1,0,2,0v-4.9L145,191.45l3.18,1.83ZM52.87,169.93a5.67,5.67,0,0,1,3.72-5.32l19.54-7.11a2.92,2.92,0,0,0,1.42,1v55.28l-13.78,5a2,2,0,0,0-1.29,1.68,2,2,0,0,0,1,1.88L81.76,233a2.06,2.06,0,0,0,1,.26,1.93,1.93,0,0,0,.67-.12L164,203.8a2,2,0,0,0,.31-3.56l-14.09-8.13V133.74a3,3,0,0,0,1.86-3.87l15.22-5.54a5.66,5.66,0,0,1,7.6,5.32V223c-38.3,5.45-73.09,14.73-101.34,27.27a215.59,215.59,0,0,0-20.64,10.44ZM256,423.48c-136.73,0-248-45.76-248-102,0-21,15.78-40.71,42.81-57.08v20.86a3.06,3.06,0,1,0,2,0V263.17c29.65-17.42,72.18-30.94,122-38.09v15a3.06,3.06,0,1,0,2,0V224.8a562.43,562.43,0,0,1,59-5l-11,25.22a14.21,14.21,0,0,1-8.12,7.63l-32.43,11.8a16.23,16.23,0,0,0-10.63,15.19v5.74a16.2,16.2,0,0,0,16.11,16.18,16.16,16.16,0,0,0,5.14-.86l9.85,4.93a16.23,16.23,0,0,0,15.29,11.07,16.51,16.51,0,0,0,5.58-1l39.73-14.47a16.2,16.2,0,0,0,9.29-8.72l31-71c38.87,3.24,65.6,7.81,91.81,15.72a21.16,21.16,0,0,0-.28,2.74c0,2.65,1.84,5.09,5,7.11V287c0,6.58,11.41,11.74,26,11.74s26-5.16,26-11.74V260.24C486.74,278.05,504,299.19,504,321.47,504,377.72,392.73,423.48,256,423.48Z"/><path d="M219.06,340.89c-16.86,0-28.81,21.38-28.81,28.2,0,2.36,1.37,4.81,3.85,7h-.18v16.11c0,5.76,11,10.27,25.14,10.27s25.13-4.51,25.13-10.27V376.11H244c2.48-2.21,3.85-4.66,3.85-7C247.87,362.27,235.91,340.89,219.06,340.89Zm23.1,51.33c0,4.85-12.17,8.23-23.1,8.23s-23.1-3.38-23.1-8.23V377.58c5.07,3.56,13.21,6.19,23.1,6.19s18-2.63,23.1-6.19Zm-23.1-10.49c-16.35,0-26.78-7.48-26.78-12.64,0-6.13,11.41-26.17,26.78-26.17s26.78,20,26.78,26.17C245.84,374.25,235.41,381.73,219.06,381.73Z"/><path d="M419.66,333.87c-12.3,0-22.54,14.45-22.54,19.91,0,2.28,1.67,4.36,4.52,6v11c0,4.89,9.29,7.54,18,7.54s18-2.65,18-7.54v-11c2.84-1.66,4.52-3.74,4.52-6C442.21,348.32,432,333.87,419.66,333.87Zm16,36.91c0,2.6-6.57,5.5-16,5.5s-16-2.9-16-5.5v-9.95a46,46,0,0,0,32,0Zm-16-9.11c-12.26,0-20.51-4.08-20.51-7.89,0-4.38,9.23-17.88,20.51-17.88s20.52,13.5,20.52,17.88C440.18,357.59,431.93,361.67,419.66,361.67Z"/><path d="M319.79,285c-14.66,0-26.65,20-26.65,26.52,0,2.5,1.72,4.89,4.61,6.9v39.32c0,5.17,9.48,9.08,22,9.08s22-3.91,22-9.08V318.44c2.89-2,4.61-4.4,4.61-6.9C346.45,305,334.46,285,319.79,285Zm20,72.74c0,3.33-8.21,7-20,7s-20-3.71-20-7V319.69c5,2.71,12.23,4.49,20,4.49s15-1.78,20-4.49Zm-20-35.61c-11.15,0-24.62-4.74-24.62-10.61,0-4.8,11.06-24.48,24.62-24.48s24.62,19.68,24.62,24.48C344.41,317.41,331,322.15,319.79,322.15Z"/><path d="M90,294.65c-14,0-24.75,16.34-24.75,23,0,3.44,2.48,6.52,6.59,8.8v13.69c0,4.94,9.36,7.6,18.16,7.6s18.17-2.66,18.17-7.6V326.47c4.1-2.28,6.59-5.36,6.59-8.8C114.74,311,104,294.65,90,294.65Zm16.14,45.51c0,2.63-6.63,5.57-16.14,5.57s-16.13-2.94-16.13-5.57V327.47a40.67,40.67,0,0,0,16.13,3,40.72,40.72,0,0,0,16.14-3ZM90,328.47c-12.31,0-22.72-5-22.72-10.8s10.08-21,22.72-21,22.73,15.07,22.73,21S102.3,328.47,90,328.47Z"/></svg>