<svg id="Layer_1" data-name="Layer 1" xmlns="http://www.w3.org/2000/svg" viewBox="0 0 256 256"><defs><style>.cls-1{fill:none;stroke:#000;stroke-miterlimit:10;stroke-width:1.5px;}</style></defs><path class="cls-1" d="M220,129.2c15.13,8.11,24.13,18.28,24.13,29.32,0,26.53-52,48-116.08,48s-116.08-21.5-116.08-48c0-25.33,47.36-46.07,107.44-47.9"/><path class="cls-1" d="M150.85,111.42c16.89,1.39,30.23,3.41,43.61,7.48"/><path class="cls-1" d="M155.36,67.49,128,130.12a7.08,7.08,0,0,1-4,3.82l-15.12,5.5a7.05,7.05,0,0,0-4.65,6.63v2.68a7.06,7.06,0,0,0,9.48,6.63l18.52-6.74a7,7,0,0,0,4.06-3.81L163.6,82.2a7.06,7.06,0,0,1,4.05-3.81l15.12-5.51a7.05,7.05,0,0,0,4.65-6.63V63.57A7.05,7.05,0,0,0,178,56.94l-18.53,6.74A7.08,7.08,0,0,0,155.36,67.49Z"/><path class="cls-1" d="M173.3,58.63V56.51a7.06,7.06,0,0,0-9.47-6.63L145.3,56.62a7.09,7.09,0,0,0-4.05,3.81l-27.32,62.64a7.08,7.08,0,0,1-4.06,3.81l-15.12,5.5A7.05,7.05,0,0,0,90.11,139v2.68a7.06,7.06,0,0,0,9.47,6.64l4.64-1.7"/><path class="cls-1" d="M123.86,133.88l25.62-58.74a7,7,0,0,1,4.06-3.81"/><line class="cls-1" x1="99.58" y1="148.33" x2="104.52" y2="150.8"/><path class="cls-1" d="M123.74,180.72c0,2.9-5.4,6.37-13,6.37s-13-3.47-13-6.37,5.39-12.67,13-12.67S123.74,177.82,123.74,180.72Z"/><path class="cls-1" d="M99.53,184v7.5c0,2.39,5,4.32,11.25,4.32S122,193.89,122,191.5V184"/><path class="cls-1" d="M214.34,173.58c0,2.3-4.49,4.15-10,4.15s-10-1.85-10-4.15,4.49-8.8,10-8.8S214.34,171.29,214.34,173.58Z"/><path class="cls-1" d="M196.37,176v5.56c0,1.68,3.55,3,7.93,3s7.93-1.36,7.93-3V176"/><path class="cls-1" d="M196.64,123.49v19c0,2.76,5.21,5,11.63,5s11.64-2.24,11.64-5v-18.9"/><path class="cls-1" d="M169.69,153.89c0,2.64-5.35,5.42-11.95,5.42s-12-2.78-12-5.42,5.35-11.89,12-11.89S169.69,151.25,169.69,153.89Z"/><path class="cls-1" d="M147.94,156.76v18.68c0,2.07,4.39,3.76,9.8,3.76s9.8-1.69,9.8-3.76V156.76"/><path class="cls-1" d="M61.67,156.75c0,3-5,5.51-11.07,5.51s-11.06-2.47-11.06-5.51,5-10.26,11.06-10.26S61.67,153.71,61.67,156.75Z"/><path class="cls-1" d="M42.61,160.68v6.56c0,1.69,3.58,3.06,8,3.06s8-1.37,8-3.06v-6.56"/><path class="cls-1" d="M222.29,120.53c0,3-6.27,5.52-14,5.52s-14-2.47-14-5.52,6.26-27.77,14-27.77S222.29,117.47,222.29,120.53Z"/><line class="cls-1" x1="45.28" y1="81.94" x2="45.28" y2="111.9"/><path d="M43,82.05a2.26,2.26,0,1,1,2.26,2.26A2.26,2.26,0,0,1,43,82.05Z"/><path d="M43,111.79a2.26,2.26,0,1,0,2.26-2.26A2.26,2.26,0,0,0,43,111.79Z"/><line class="cls-1" x1="78.19" y1="70.38" x2="78.19" y2="100.34"/><path d="M75.93,70.49a2.26,2.26,0,1,1,2.26,2.26A2.26,2.26,0,0,1,75.93,70.49Z"/><path d="M75.93,100.23A2.26,2.26,0,1,0,78.19,98,2.26,2.26,0,0,0,75.93,100.23Z"/><path class="cls-1" d="M90.64,121.21V69.09a3.11,3.11,0,0,0-4.18-2.92L34.87,85a3.1,3.1,0,0,0-2,2.92v54.38"/><path d="M92.9,121.1a2.26,2.26,0,1,1-2.26-2.26A2.26,2.26,0,0,1,92.9,121.1Z"/><path d="M30.57,142.14a2.26,2.26,0,1,0,2.25-2.25A2.26,2.26,0,0,0,30.57,142.14Z"/><path class="cls-1" d="M76.09,97.45,38.54,111.12a.45.45,0,0,0-.07.8L47,116.85a.48.48,0,0,0,.37,0l37.54-13.67a.44.44,0,0,0,.07-.8l-8.53-4.92A.44.44,0,0,0,76.09,97.45Z"/></svg>