<svg id="Layer_1" data-name="Layer 1" xmlns="http://www.w3.org/2000/svg" viewBox="0 0 256 256"><defs><style>.cls-1,.cls-2{fill:none;stroke:#000;stroke-miterlimit:10;stroke-width:1.5px;}.cls-1{stroke-linecap:round;}</style></defs><line class="cls-1" x1="22" y1="122.46" x2="6.71" y2="128.03"/><line class="cls-1" x1="249.13" y1="151.14" x2="125.37" y2="196.18"/><line class="cls-1" x1="70.67" y1="104.75" x2="60.31" y2="108.52"/><line class="cls-1" x1="6.71" y1="128.03" x2="125.33" y2="196.25"/><line class="cls-1" x1="192.21" y1="118.25" x2="249.29" y2="151.08"/><path class="cls-1" d="M40.28,118.82a41.09,41.09,0,0,1-10.44-1.45"/><path class="cls-1" d="M40.28,196.26a40.67,40.67,0,0,1-10.44-1.44"/><path class="cls-1" d="M60.31,102.23c0,4.17-8.58,7.56-19.17,7.56S22,106.4,22,102.23"/><path class="cls-1" d="M40.28,114.82a41.09,41.09,0,0,1-10.44-1.45"/><path class="cls-1" d="M40.28,117.36h.86c10.59,0,19.17,3.39,19.17,7.57s-8.58,7.56-19.17,7.56h-.86"/><path class="cls-1" d="M29.83,131c-4.76-1.37-7.86-3.6-7.86-6.1s3.1-4.73,7.86-6.11"/><path class="cls-1" d="M60.31,130.21c0,4.18-8.58,7.56-19.17,7.56S22,134.39,22,130.21"/><path class="cls-1" d="M40.28,122.65h.86c8.23,0,15.24,2,18,4.91"/><path class="cls-1" d="M23.18,127.56a15.15,15.15,0,0,1,6.65-3.46"/><line class="cls-1" x1="21.97" y1="96.93" x2="21.97" y2="130.21"/><line class="cls-1" x1="60.31" y1="98.48" x2="60.31" y2="130.21"/><line class="cls-1" x1="40.28" y1="114.82" x2="40.28" y2="137.65"/><line class="cls-1" x1="29.83" y1="113.41" x2="29.83" y2="136.1"/><ellipse class="cls-1" cx="41.14" cy="174.38" rx="19.17" ry="7.56"/><ellipse class="cls-1" cx="41.14" cy="96.9" rx="19.17" ry="7.56"/><path class="cls-1" d="M60,158.68c-1.6,3.54-9.44,6.23-18.87,6.23-10.58,0-19.17-3.39-19.17-7.57s8.59-7.56,19.17-7.56c1.24,0,2.45,0,3.62.13"/><path class="cls-1" d="M60.31,179.67c0,4.18-8.58,7.57-19.17,7.57S22,183.85,22,179.67"/><path class="cls-1" d="M40.28,192.26a40.67,40.67,0,0,1-10.44-1.44"/><path class="cls-1" d="M40.28,194.81h.86c10.59,0,19.17,3.39,19.17,7.57s-8.58,7.56-19.17,7.56h-.86"/><path class="cls-1" d="M29.83,208.47c-4.76-1.38-7.86-3.6-7.86-6.1s3.1-4.73,7.86-6.11"/><path class="cls-1" d="M60.31,207.66c0,4.18-8.58,7.56-19.17,7.56S22,211.84,22,207.66"/><path class="cls-1" d="M40.28,200.1h.86c8.23,0,15.24,2,18,4.91"/><path class="cls-1" d="M23.18,205a15.15,15.15,0,0,1,6.65-3.46"/><polyline class="cls-1" points="21.97 207.66 21.97 197.62 21.97 136.81"/><polyline class="cls-1" points="60.31 207.66 60.31 197.62 60.31 158.85"/><line class="cls-1" x1="40.28" y1="192.27" x2="40.28" y2="215.1"/><line class="cls-1" x1="29.83" y1="190.86" x2="29.83" y2="213.55"/><line class="cls-1" x1="50.49" y1="153.39" x2="50.49" y2="179.05"/><line class="cls-1" x1="33.06" y1="143.58" x2="33.06" y2="169.14"/><line class="cls-1" x1="35" y1="195.87" x2="35" y2="214.82"/><line class="cls-1" x1="35" y1="118.43" x2="35" y2="137.38"/><path class="cls-2" d="M185.55,79.89a82.54,82.54,0,0,1,6.25,32v9.51c0,7.87-24.57,14.26-59.57,14.26s-59.58-6.39-59.58-14.26v-9.51c0-38.5,24.57-69.72,59.58-69.72A54.23,54.23,0,0,1,167,54.55"/><path class="cls-2" d="M72.65,121a5,5,0,0,1-1.9-3.59v-9.2c0-37.26,24.57-67.47,59.57-67.47,1.39,0,2.77,0,4.13.14l2.05,1.44"/><path class="cls-2" d="M72.65,121.43l-.8,1.11v9.63c0,8,24.9,14.45,60.38,14.45s60.37-6.47,60.37-14.45v-9.63l-.8-1.11"/><path class="cls-2" d="M72.65,134.58v17.87c0,8,24.57,14.45,59.58,14.45s59.57-6.47,59.57-14.45V134.58"/><path class="cls-1" d="M153.13,149.58a143.11,143.11,0,0,0,21.76-3.33"/><path class="cls-2" d="M162.07,58.84c-8.25-10.33-18.6-16.48-29.84-16.48-27,0-48.81,35.33-48.81,78.91v8.54"/><path class="cls-2" d="M181,129.81v-8.54a118.22,118.22,0,0,0-6.28-38.75"/><path class="cls-2" d="M157.21,60.9c-.87-1.43-1.77-2.8-2.7-4.09"/><path class="cls-2" d="M169.45,95.75a123.6,123.6,0,0,0-2.82-12.46"/><path class="cls-2" d="M146.24,51.18c-4.21-5.64-9-8.82-14-8.82-17.16,0-31.06,36.75-31.06,82.08v9.29"/><path class="cls-2" d="M163.28,133.73v-9.29a208.29,208.29,0,0,0-1.83-27.87"/><path class="cls-2" d="M143.63,135.45v-9.11c0-46.38-5.25-84-11.72-84s-11.73,37.6-11.73,84v9.08"/><ellipse class="cls-2" cx="182.81" cy="64.48" rx="8.56" ry="12.68" transform="translate(-11.03 66.41) rotate(-20)"/><path class="cls-2" d="M164.1,84.15c-.51,1.86-1.45,3.18-2.81,3.67-3.62,1.32-8.78-3.74-11.54-11.31s-2.05-14.77,1.57-16.08a5,5,0,0,1,4.45,1"/><ellipse class="cls-2" cx="182.81" cy="64.48" rx="11.73" ry="15.85" transform="translate(-11.03 66.41) rotate(-20)"/><path class="cls-2" d="M173.35,52.41l-6.55,2.38c-4.6,1.68-6.1,9.17-3.35,16.73s8.72,12.34,13.32,10.67l6.7-2.44"/><path class="cls-2" d="M163.1,58.72l-5.77,2.11-4.28,1.55c-3,1.09-3.57,7.09-1.28,13.4s6.59,10.52,9.59,9.43l4.37-1.59,5.68-2.07"/><path class="cls-2" d="M154.07,50.7c-5.23.43-10.89.71-16.82.81"/><path class="cls-2" d="M138.51,57.21c5.93-.1,10.66-.16,15.9-.59V51.1"/><path class="cls-2" d="M178.16,94.57a292,292,0,0,1-35.23,3.09"/><line class="cls-2" x1="151.32" y1="60.43" x2="139.86" y2="64.6"/><line class="cls-2" x1="161.29" y1="87.82" x2="142.74" y2="94.57"/><line class="cls-1" x1="153.13" y1="166.06" x2="153.13" y2="149.79"/><line class="cls-1" x1="174.89" y1="162.73" x2="174.89" y2="146.25"/></svg>