<svg id="Layer_1" data-name="Layer 1" xmlns="http://www.w3.org/2000/svg" viewBox="0 0 256 256"><defs><style>.cls-1,.cls-2{fill:none;stroke:#000;stroke-miterlimit:10;stroke-width:1.5px;}.cls-1{stroke-linecap:round;}</style></defs><polyline class="cls-1" points="120.34 62 120.34 63.36 120.34 112.91"/><line class="cls-1" x1="177.92" y1="146.12" x2="214.8" y2="132.64"/><line class="cls-1" x1="120.36" y1="112.88" x2="177.92" y2="146.13"/><path class="cls-1" d="M203.32,115.91l-36.76,13.38a.1.1,0,0,0,0,.18L177.87,136a.08.08,0,0,0,.08,0l36.77-13.38a.1.1,0,0,0,0-.18l-11.32-6.54A.14.14,0,0,0,203.32,115.91Z"/><line class="cls-1" x1="177.92" y1="146.12" x2="177.92" y2="136.01"/><line class="cls-1" x1="214.8" y1="132.64" x2="214.8" y2="122.53"/><path class="cls-1" d="M191.83,99.06l-36.77,13.38a.1.1,0,0,0,0,.18l11.32,6.54a.08.08,0,0,0,.08,0l36.77-13.38a.1.1,0,0,0,0-.18l-11.32-6.54A.08.08,0,0,0,191.83,99.06Z"/><line class="cls-1" x1="166.43" y1="129.27" x2="166.43" y2="119.16"/><line class="cls-1" x1="203.3" y1="115.79" x2="203.3" y2="105.68"/><path class="cls-1" d="M180.33,82.21,143.56,95.59a.1.1,0,0,0,0,.18l11.32,6.54a.08.08,0,0,0,.08,0l36.77-13.38a.1.1,0,0,0,0-.18l-11.33-6.54A.08.08,0,0,0,180.33,82.21Z"/><line class="cls-1" x1="154.93" y1="112.42" x2="154.93" y2="102.31"/><line class="cls-1" x1="191.8" y1="98.94" x2="191.8" y2="88.83"/><path class="cls-1" d="M168.83,65.36,132.07,78.74a.1.1,0,0,0,0,.18l11.32,6.54a.1.1,0,0,0,.09,0l36.76-13.38a.1.1,0,0,0,0-.18l-11.32-6.54A.1.1,0,0,0,168.83,65.36Z"/><line class="cls-1" x1="143.43" y1="95.57" x2="143.43" y2="85.46"/><line class="cls-1" x1="180.3" y1="82.09" x2="180.3" y2="71.98"/><path class="cls-1" d="M157.24,48.57,120.47,62a.1.1,0,0,0,0,.18l11.32,6.54a.11.11,0,0,0,.08,0l36.77-13.39a.1.1,0,0,0,0-.18l-11.32-6.53A.08.08,0,0,0,157.24,48.57Z"/><line class="cls-1" x1="131.84" y1="78.78" x2="131.84" y2="68.67"/><line class="cls-1" x1="168.71" y1="65.3" x2="168.71" y2="55.19"/><line class="cls-1" x1="108.22" y1="78.61" x2="103" y2="80.51"/><line class="cls-1" x1="102.48" y1="73.92" x2="96.75" y2="76"/><line class="cls-2" x1="96.74" y1="79.47" x2="90.49" y2="81.74"/><line class="cls-1" x1="90.48" y1="80.18" x2="84.75" y2="82.26"/><line class="cls-1" x1="84.74" y1="89.38" x2="77.97" y2="91.84"/><line class="cls-1" x1="67.01" y1="104.22" x2="52.4" y2="95.72"/><line class="cls-2" x1="67.21" y1="88.17" x2="52.4" y2="79.55"/><line class="cls-2" x1="73.47" y1="86.08" x2="58.66" y2="77.46"/><line class="cls-2" x1="78.17" y1="82.95" x2="62.83" y2="74.17"/><path class="cls-2" d="M85.27,82.39,70,73.52a.27.27,0,0,0-.41.24v4.47"/><polyline class="cls-1" points="90.69 80.34 75.58 71.56 75.12 71.34 69.62 73.32"/><line class="cls-2" x1="96.42" y1="79.3" x2="81.61" y2="70.68"/><line class="cls-2" x1="96.94" y1="75.65" x2="82.14" y2="67.03"/><line class="cls-2" x1="102.68" y1="74.09" x2="87.58" y2="65.3"/><line class="cls-2" x1="73.47" y1="84" x2="59.27" y2="75.73"/><line class="cls-2" x1="84.95" y1="89.73" x2="77.96" y2="85.67"/><line class="cls-2" x1="108.42" y1="78.78" x2="102.28" y2="75.21"/><line class="cls-1" x1="97.99" y1="207.44" x2="249.13" y2="152.43"/><path class="cls-2" d="M36.66,143.51,7,154.29a.24.24,0,0,0,0,.43l91,52.72"/><line class="cls-2" x1="120.38" y1="113.03" x2="113.94" y2="115.37"/><line class="cls-1" x1="249.12" y1="152.19" x2="214.93" y2="132.33"/><path class="cls-2" d="M127.2,133.53,73.43,153.1a.21.21,0,0,0,0,.38l23,13.35a.57.57,0,0,0,.48,0l53.61-19.51a.21.21,0,0,0,0-.38l-23.1-13.44A.23.23,0,0,0,127.2,133.53Z"/><path class="cls-2" d="M25.43,136a.52.52,0,0,0-.09.94l20.21,11.74a.52.52,0,0,0,.44,0l67.64-24.62a.52.52,0,0,0,.08-.94l-9.14-5.32"/><line class="cls-2" x1="52.4" y1="95.36" x2="42.41" y2="99"/><path class="cls-2" d="M45.55,117.87a.56.56,0,0,0,.44,0l67.64-24.63a.52.52,0,0,0,.08-.94L108.3,89.2"/><path class="cls-2" d="M25,153.6V88.25L93.1,63a.52.52,0,0,1,.7.49v5.48"/><path d="M27.2,153.49A2.26,2.26,0,1,1,25,151.24,2.26,2.26,0,0,1,27.2,153.49Z"/><polyline class="cls-1" points="114.15 138.21 114.15 75.21 93.8 62.92"/><polyline class="cls-2" points="45.29 166.12 45.29 100.77 24.95 88.25"/><path d="M47.55,166a2.26,2.26,0,1,1-2.26-2.25A2.26,2.26,0,0,1,47.55,166Z"/><line class="cls-1" x1="66.93" y1="104.2" x2="108.34" y2="89.12"/><line class="cls-1" x1="108.24" y1="89.16" x2="108.24" y2="78.86"/><line class="cls-1" x1="102.5" y1="91.25" x2="102.5" y2="74.17"/><line class="cls-2" x1="96.76" y1="93.33" x2="96.76" y2="75.73"/><line class="cls-1" x1="77.96" y1="82.64" x2="73.27" y2="84.35"/><line class="cls-2" x1="73.29" y1="101.68" x2="73.29" y2="84.08"/><line class="cls-1" x1="90.5" y1="95.42" x2="90.5" y2="80.43"/><line class="cls-1" x1="73.27" y1="86.25" x2="67.01" y2="88.52"/><polyline class="cls-1" points="87.87 65.05 82.14 67.14 82.14 70.68"/><line class="cls-2" x1="82.14" y1="70.6" x2="76.92" y2="72.5"/><polyline class="cls-1" points="52.41 79.66 58.66 77.38 58.67 75.84"/><line class="cls-1" x1="67.03" y1="103.77" x2="67.03" y2="88.77"/><line class="cls-1" x1="52.42" y1="95.42" x2="52.42" y2="79.9"/><line class="cls-1" x1="84.77" y1="97.51" x2="84.77" y2="82.51"/><line class="cls-1" x1="77.98" y1="100.11" x2="77.98" y2="83.03"/><line class="cls-1" x1="45.3" y1="140.97" x2="49.03" y2="143.13"/><line class="cls-1" x1="87.24" y1="129.07" x2="104.56" y2="122.77"/><line class="cls-1" x1="68.2" y1="135.9" x2="85.51" y2="129.6"/><line class="cls-1" x1="48.97" y1="143.05" x2="66.29" y2="136.75"/><line class="cls-1" x1="87.23" y1="111.84" x2="104.57" y2="105.53"/><line class="cls-1" x1="95.6" y1="100.32" x2="104.55" y2="105.48"/><line class="cls-1" x1="77.87" y1="106.43" x2="87.23" y2="111.83"/><line class="cls-1" x1="104.55" y1="105.53" x2="104.55" y2="122.76"/><line class="cls-1" x1="87.23" y1="111.84" x2="87.23" y2="129.07"/><line class="cls-1" x1="68.18" y1="118.76" x2="85.52" y2="112.45"/><line class="cls-1" x1="59" y1="113.46" x2="68.18" y2="118.76"/><line class="cls-1" x1="76.22" y1="107.2" x2="85.4" y2="112.5"/><line class="cls-1" x1="85.5" y1="112.46" x2="85.5" y2="129.59"/><line class="cls-1" x1="68.18" y1="118.76" x2="68.18" y2="135.92"/><line class="cls-1" x1="48.99" y1="125.83" x2="66.32" y2="119.53"/><line class="cls-1" x1="56.78" y1="113.98" x2="66.31" y2="119.48"/><line class="cls-1" x1="45.29" y1="123.7" x2="48.99" y2="125.83"/><line class="cls-1" x1="66.31" y1="119.53" x2="66.31" y2="136.74"/><line class="cls-1" x1="48.99" y1="125.83" x2="48.99" y2="142.95"/><line class="cls-1" x1="66.36" y1="134.87" x2="68.19" y2="135.92"/><line class="cls-1" x1="85.5" y1="128.1" x2="87.23" y2="129.09"/><ellipse class="cls-2" cx="57.88" cy="128.94" rx="1.83" ry="2.09"/><ellipse class="cls-2" cx="77.18" cy="121.63" rx="1.83" ry="2.09"/><ellipse class="cls-2" cx="95.96" cy="115.37" rx="1.83" ry="2.09"/><line class="cls-2" x1="73.23" y1="153.67" x2="73.23" y2="180.9"/><path d="M71,180.78a2.26,2.26,0,1,0,2.26-2.25A2.26,2.26,0,0,0,71,180.78Z"/><line class="cls-2" x1="96.34" y1="166.67" x2="96.34" y2="193.9"/><circle cx="96.34" cy="193.78" r="2.26"/><line class="cls-2" x1="150.74" y1="146.93" x2="150.74" y2="174.16"/><path d="M148.49,174a2.26,2.26,0,1,0,2.25-2.25A2.26,2.26,0,0,0,148.49,174Z"/><line class="cls-2" x1="127.63" y1="155.6" x2="127.63" y2="160.68"/><path d="M125.38,160.56a2.26,2.26,0,1,0,2.25-2.25A2.26,2.26,0,0,0,125.38,160.56Z"/></svg>